<svg xmlns="http://www.w3.org/2000/svg" width="150" height="41" viewBox="0 0 150 41"><defs><style>.a{fill:#010101;}.b{fill:#21abe2;}</style></defs><title>logo-long-noir</title><path class="a" d="M125,38.94c.8,0,1.25-.44,1.25-1.06a1.06,1.06,0,0,0-.92-1.13l-.65-.16a.5.5,0,0,1-.44-.51c0-.29.2-.51.65-.51a.68.68,0,0,1,.71.5h.59A1.2,1.2,0,0,0,124.84,35a1.09,1.09,0,0,0-1.23,1.09,1,1,0,0,0,.79,1.07l.67.17c.39.09.55.26.55.55s-.26.49-.65.49a.78.78,0,0,1-.83-.67h-.59A1.29,1.29,0,0,0,125,38.94m-2.91-3.89h-.59v3.83h.59Zm-2.78,1.1c0,.33-.22.52-.58.52h-.92v-1h.92c.36,0,.58.19.58.52m-.9,1.08,1,1.65H120l-1-1.67a1,1,0,0,0,.86-1.07,1,1,0,0,0-1.18-1.09h-1.5v3.83h.58V37.23Zm-4.74.18.53-1.52.54,1.52Zm1.58,1.47h.6l-1.34-3.83h-.61l-1.34,3.83h.6l.33-.92h1.43Zm-5.7-1.32h.87a1.26,1.26,0,1,0,0-2.51h-1.46v3.83h.59Zm.87-1.94a.68.68,0,1,1,0,1.36h-.87V35.62Zm-7.44-1.42.7.6h.5l-.45-.6Zm.3,3.21.53-1.52.53,1.52Zm1.57,1.47h.6l-1.34-3.83h-.6l-1.34,3.83h.6l.32-.92h1.44ZM97.62,34.2l-.45.6h.5l.7-.6ZM97,35.63H98.7v-.58H96.44v3.83H98.7V38.3H97V37.24H98.7v-.58H97Zm-2.33-.58h-.59v3.83h.59Zm-3.86.58h1.67v-.58H90.25v3.83h.59V37.24h1.67v-.58H90.84ZM87.51,34.2l-.45.6h.5l.7-.6Zm-.59,1.43H88.6v-.58H86.34v3.83H88.6V38.3H86.92V37.24H88.6v-.58H86.92Zm-2.77.52c0,.33-.22.52-.58.52h-.92v-1h.92c.36,0,.58.19.58.52m-.9,1.08,1,1.65h.65l-1-1.67a1,1,0,0,0,.86-1.07,1,1,0,0,0-1.18-1.09H82.06v3.83h.59V37.23Zm-3.37-1.08a.51.51,0,0,1-.58.52h-.92v-1h.92a.51.51,0,0,1,.58.52M79,37.23l1,1.65h.66l-1-1.67a1,1,0,0,0,.86-1.07,1,1,0,0,0-1.18-1.09H77.79v3.83h.59V37.23Zm-5.55.35a1.38,1.38,0,0,0,2.75,0V36.35a1.38,1.38,0,0,0-2.75,0Zm2.16,0a.79.79,0,0,1-1.58,0V36.35a.79.79,0,0,1,1.58,0Zm-3.37-1.95v-.58H69.47v.58h1.08v3.25h.58V35.63Z"/><path class="a" d="M64.07,3h-5a3.51,3.51,0,0,1-.72,2.18L50.14,15.79V5.46a4.46,4.46,0,0,1,0-.63L50.51,3H45.68l.55,1.59a3.66,3.66,0,0,1,.2,1.18V25.28a3.72,3.72,0,0,1-.2,1.19L45.68,28h4.83l-.32-1.84a4.21,4.21,0,0,1,0-.62V21.26L54,16.2,60.08,28h4L56.3,13.17l6.12-8Z"/><path class="a" d="M75.54,19.13,79.12,9l3.57,10.15ZM80.88,3H76.42l.32,1a3.7,3.7,0,0,1,0,2.37l-7.25,20.2a3,3,0,0,1-.18.41L68.7,28h5.24l-.24-1.11a3.6,3.6,0,0,1,.14-2l.81-2.19h8.93l.81,2.19a3.6,3.6,0,0,1,.14,2L84.29,28h5.4L89.12,27c-.07-.15-.14-.31-.2-.47Z"/><path class="a" d="M122.45,6.05l-5.34,16L111.76,6a3.31,3.31,0,0,1-.06-1.82L112,3h-5.4l.28,1.28A3.35,3.35,0,0,1,106.8,6l-5.36,16.07L96.17,6.28A4.5,4.5,0,0,1,96.05,4l.21-1H91l.56,1.07c.08.17.15.34.22.51L99.07,24.8a3.36,3.36,0,0,1,0,2.19L98.74,28h4.46l6.2-18.1,5.34,14.86a3.36,3.36,0,0,1,0,2.19L114.41,28h4.46l8-23.45a5.55,5.55,0,0,1,.24-.56L127.68,3h-5.39l.26,1.2a3.71,3.71,0,0,1-.1,1.87"/><path class="a" d="M135.86,19.13,139.43,9,143,19.13ZM141.2,3h-4.47l.32,1a3.57,3.57,0,0,1,0,2.37l-7.25,20.2a3,3,0,0,1-.18.41L129,28h5.23L134,26.93a3.78,3.78,0,0,1,.14-2l.81-2.19h8.94l.81,2.19a3.78,3.78,0,0,1,.14,2L144.6,28H150L149.44,27a2.76,2.76,0,0,1-.2-.47Z"/><path class="a" d="M27.83,4.64C22.61.66,15.29,2.11,9.25,3.47,6.47,4.1,3.73,4.81,1.78,6.82A5.24,5.24,0,0,0,.31,12.36c1.61,3.91,7.43,4.23,11.37,3.91a34.38,34.38,0,0,0,13.75-3.86c1.58-.88,3.34-2.1,4-3.72s-.26-3-1.57-4c-.74-.59-3.89.54-3.2,1.09a3.3,3.3,0,0,1,1.54,2.88,4.43,4.43,0,0,1-2,2.66,21.57,21.57,0,0,1-9.43,3.4c-3.23.49-7.47.67-10-1.52-3-2.54-2.1-6.49,2.89-8.06,6.66-1.9,12.1-3.09,17,.64.76.58,3.88-.57,3.2-1.09"/><path class="a" d="M26.28,9.62c.25,4.07.7,8.16.22,12.22-.42,3.52-1.95,7.86-6.06,9.33-3.33,1.19-7.73.56-10.87-.8-1.73-.76-3.7-1.66-4.88-3.6-.86-1.28-1.07-2.86-1.29-5.36-.33-3.81-.27-6.4-.27-10.22,0-.38-3.13-1.12-3.13-.32,0,3.75.33,8.68.63,12.42a8.41,8.41,0,0,0,1.45,4.62,11.21,11.21,0,0,0,4.76,3.66,22.31,22.31,0,0,0,13.48.53,13.48,13.48,0,0,0,5.77-2.8,10.81,10.81,0,0,0,3-5.45c1.26-4.93.72-11.74.42-16.73,0-.43-3.31,1.74-3.27,2.5"/><path class="b" d="M32,4.92c-.26,4.79.25,8.66,0,13.44-.24,4.53-.82,10-4.89,13.44-.62.53-.33.64.14.65A4.81,4.81,0,0,0,30,31.78c4.13-3.5,4.94-8.7,5.26-13.33.34-5-.22-9.17,0-14.21,0-.6-3.24-.3-3.3.68"/></svg>